<svg width="40" height="40" viewBox="0 0 40 40" fill="none" xmlns="http://www.w3.org/2000/svg">
<rect x="0.75" y="0.75" width="38.5" height="38.5" fill="white"/>
<rect x="0.75" y="0.75" width="38.5" height="38.5" stroke="white" stroke-width="1.5"/>
<path d="M20 12.5C17.1758 12.5 14.6797 12.793 13.1562 13.0156C11.8965 13.2002 10.8799 14.1494 10.6484 15.4062C10.4521 16.4756 10.25 18.04 10.25 20C10.25 21.96 10.4521 23.5244 10.6484 24.5938C10.8799 25.8506 11.8965 26.8027 13.1562 26.9844C14.6855 27.207 17.1904 27.5 20 27.5C22.8096 27.5 25.3145 27.207 26.8438 26.9844C28.1035 26.8027 29.1201 25.8506 29.3516 24.5938C29.5479 23.5215 29.75 21.9541 29.75 20C29.75 18.0459 29.5508 16.4785 29.3516 15.4062C29.1201 14.1494 28.1035 13.2002 26.8438 13.0156C25.3203 12.793 22.8242 12.5 20 12.5ZM20 14C22.7246 14 25.1592 14.2783 26.6328 14.4922C27.2656 14.5859 27.7607 15.0635 27.875 15.6875C28.0566 16.6777 28.25 18.1455 28.25 20C28.25 21.8516 28.0566 23.3223 27.875 24.3125C27.7607 24.9365 27.2686 25.417 26.6328 25.5078C25.1533 25.7217 22.707 26 20 26C17.293 26 14.8438 25.7217 13.3672 25.5078C12.7344 25.417 12.2393 24.9365 12.125 24.3125C11.9434 23.3223 11.75 21.8574 11.75 20C11.75 18.1396 11.9434 16.6777 12.125 15.6875C12.2393 15.0635 12.7314 14.5859 13.3672 14.4922C14.8379 14.2783 17.2754 14 20 14ZM17.75 15.7109V24.2891L18.875 23.6562L24.125 20.6562L25.25 20L24.125 19.3438L18.875 16.3438L17.75 15.7109ZM19.25 18.2891L22.2266 20L19.25 21.7109V18.2891Z" fill="#1E1E1E"/>
</svg>
